<svg width="28" height="28" viewBox="0 0 28 28" fill="none" xmlns="http://www.w3.org/2000/svg">
<path d="M12.8333 17.5002H15.1666V19.8335H12.8333V17.5002ZM12.8333 8.16683H15.1666V15.1668H12.8333V8.16683ZM14 2.3335C7.54831 2.3335 2.33331 7.5835 2.33331 14.0002C2.33331 17.0944 3.56248 20.0618 5.7504 22.2497C6.83375 23.3331 8.11987 24.1925 9.53534 24.7788C10.9508 25.3651 12.4679 25.6668 14 25.6668C17.0942 25.6668 20.0616 24.4377 22.2496 22.2497C24.4375 20.0618 25.6666 17.0944 25.6666 14.0002C25.6666 12.4681 25.3649 10.951 24.7786 9.53552C24.1923 8.12006 23.3329 6.83393 22.2496 5.75058C21.1662 4.66723 19.8801 3.80787 18.4646 3.22157C17.0492 2.63526 15.5321 2.3335 14 2.3335ZM14 23.3335C11.5246 23.3335 9.15066 22.3502 7.40032 20.5998C5.64998 18.8495 4.66665 16.4755 4.66665 14.0002C4.66665 11.5248 5.64998 9.15084 7.40032 7.4005C9.15066 5.65016 11.5246 4.66683 14 4.66683C16.4753 4.66683 18.8493 5.65016 20.5996 7.4005C22.35 9.15084 23.3333 11.5248 23.3333 14.0002C23.3333 16.4755 22.35 18.8495 20.5996 20.5998C18.8493 22.3502 16.4753 23.3335 14 23.3335Z" fill="#D50000"/>
</svg>
