<svg width="29" height="29" viewBox="0 0 29 29" fill="none" xmlns="http://www.w3.org/2000/svg">
<path d="M14.5 2.4165C15.8291 2.4165 16.9166 3.504 16.9166 4.83317C16.9166 6.16234 15.8291 7.24984 14.5 7.24984C13.1708 7.24984 12.0833 6.16234 12.0833 4.83317C12.0833 3.504 13.1708 2.4165 14.5 2.4165ZM19.2125 9.78734C18.7291 9.304 17.8833 8.45817 16.3125 8.45817H13.2916C9.90831 8.45817 7.24998 5.79984 7.24998 2.4165H4.83331C4.83331 6.28317 7.37081 9.42484 10.875 10.5123V26.5832H13.2916V19.3332H15.7083V26.5832H18.125V12.204L22.9583 16.9165L24.65 15.2248L19.2125 9.78734Z" fill="#33691E"/>
</svg>
