<svg width="35" height="35" viewBox="0 0 35 35" fill="none" xmlns="http://www.w3.org/2000/svg">
<path d="M16.0417 13.1248H18.9584V10.2082H16.0417M17.5 29.1665C11.0688 29.1665 5.83335 23.9311 5.83335 17.4998C5.83335 11.0686 11.0688 5.83317 17.5 5.83317C23.9313 5.83317 29.1667 11.0686 29.1667 17.4998C29.1667 23.9311 23.9313 29.1665 17.5 29.1665ZM17.5 2.9165C15.5849 2.9165 13.6886 3.29371 11.9192 4.02659C10.1499 4.75948 8.54223 5.83368 7.18805 7.18786C4.45314 9.92277 2.91669 13.6321 2.91669 17.4998C2.91669 21.3676 4.45314 25.0769 7.18805 27.8118C8.54223 29.166 10.1499 30.2402 11.9192 30.9731C13.6886 31.706 15.5849 32.0832 17.5 32.0832C21.3678 32.0832 25.0771 30.5467 27.812 27.8118C30.5469 25.0769 32.0834 21.3676 32.0834 17.4998C32.0834 15.5847 31.7061 13.6884 30.9733 11.919C30.2404 10.1497 29.1662 8.54205 27.812 7.18786C26.4578 5.83368 24.8502 4.75948 23.0808 4.02659C21.3115 3.29371 19.4151 2.9165 17.5 2.9165ZM16.0417 24.7915H18.9584V16.0415H16.0417V24.7915Z" fill="#1976D2"/>
</svg>
