<svg width="25" height="24" viewBox="0 0 25 24" fill="none" xmlns="http://www.w3.org/2000/svg">
<path d="M12.0413 5.5C12.9695 5.5 13.8598 5.86875 14.5161 6.52513C15.1725 7.1815 15.5413 8.07174 15.5413 9C15.5413 9.92826 15.1725 10.8185 14.5161 11.4749C13.8598 12.1313 12.9695 12.5 12.0413 12.5C11.113 12.5 10.2228 12.1313 9.56639 11.4749C8.91001 10.8185 8.54126 9.92826 8.54126 9C8.54126 8.07174 8.91001 7.1815 9.56639 6.52513C10.2228 5.86875 11.113 5.5 12.0413 5.5ZM5.04126 8C5.60126 8 6.12126 8.15 6.57126 8.42C6.42126 9.85 6.84126 11.27 7.70126 12.38C7.20126 13.34 6.20126 14 5.04126 14C4.24561 14 3.48255 13.6839 2.91994 13.1213C2.35733 12.5587 2.04126 11.7956 2.04126 11C2.04126 10.2044 2.35733 9.44129 2.91994 8.87868C3.48255 8.31607 4.24561 8 5.04126 8ZM19.0413 8C19.8369 8 20.6 8.31607 21.1626 8.87868C21.7252 9.44129 22.0413 10.2044 22.0413 11C22.0413 11.7956 21.7252 12.5587 21.1626 13.1213C20.6 13.6839 19.8369 14 19.0413 14C17.8813 14 16.8813 13.34 16.3813 12.38C17.2413 11.27 17.6613 9.85 17.5113 8.42C17.9613 8.15 18.4813 8 19.0413 8ZM5.54126 18.25C5.54126 16.18 8.45126 14.5 12.0413 14.5C15.6313 14.5 18.5413 16.18 18.5413 18.25V20H5.54126V18.25ZM0.0412598 20V18.5C0.0412598 17.11 1.93126 15.94 4.49126 15.6C3.90126 16.28 3.54126 17.22 3.54126 18.25V20H0.0412598ZM24.0413 20H20.5413V18.25C20.5413 17.22 20.1813 16.28 19.5913 15.6C22.1513 15.94 24.0413 17.11 24.0413 18.5V20Z" fill="#757575"/>
</svg>
